<?xml version="1.0" encoding="utf-8"?>
<!-- Generator: Adobe Illustrator 22.1.0, SVG Export Plug-In . SVG Version: 6.00 Build 0)  -->
<svg version="1.2" baseProfile="tiny" id="Layer_6" xmlns="http://www.w3.org/2000/svg" xmlns:xlink="http://www.w3.org/1999/xlink"
	 x="0px" y="0px" viewBox="0 0 112 36.6" xml:space="preserve">
<g>
	<path fill="#00C7FC" d="M26.5,12.7C26.3,5.6,20.4,0,13.3,0C6.1,0,0.3,5.6,0,12.7l0,0v17.2c0,1.9,1,2.2,2.1,0.8l0,0l0.2-0.2
		c1.2-1.5,3.1-1.5,4.3,0l0.1,0.1l0.1,0.1c1.2,1.5,3.1,1.5,4.3,0l0.1-0.1l0.1-0.1c1.2-1.5,3.1-1.5,4.3,0l0.1,0.2l0,0
		c1.2,1.5,3.1,1.5,4.3,0l0,0l0.1-0.2c1.2-1.5,3.1-1.5,4.3,0l0.1,0.1l0.1,0.1c1.2,1.5,2.1,1.1,2.1-0.7L26.5,12.7L26.5,12.7z
		 M8.6,13.9c-1.3,0-2.4-1.1-2.4-2.4s1.1-2.4,2.4-2.4s2.4,1.1,2.4,2.4S9.9,13.9,8.6,13.9z M17.9,13.9c-1.3,0-2.4-1.1-2.4-2.4
		s1.1-2.4,2.4-2.4s2.4,1.1,2.4,2.4C20.2,12.8,19.2,13.9,17.9,13.9z"/>
	<g>
		<path fill="#FFFFFF" d="M37.9,29.9c-0.9,0-1.5-0.3-2.1-0.8c-0.5-0.5-0.8-1.2-0.8-2c0-1.9,1.4-3.5,4.3-4.9c0.1-1,0.3-2.3,0.5-4.1
			c0.4-3.6,0.6-5.6,0.7-6.2c0.7-0.4,1.4-0.6,2.1-0.6c0.7,0,1.3,0,1.6,0.1l-1.8,13.6C42,28.3,40.5,29.9,37.9,29.9z M36.9,26.9
			c0,0.6,0.3,0.9,0.8,0.9c0.2,0,0.5-0.1,0.7-0.4c0.3-0.3,0.4-0.8,0.5-1.4l0.2-1.5C37.6,25.3,36.9,26.1,36.9,26.9z M53,24.6l0.8,1.2
			c-0.2,0.9-0.6,1.6-1,2.2s-0.9,1-1.3,1.3c-0.8,0.5-1.6,0.7-2.4,0.7c-1.3,0-2.3-0.4-2.9-1.1c-0.6-0.8-0.9-1.8-1-3
			c0-2-0.2-3.3-0.4-3.8c-0.2-0.5-0.6-0.8-1.3-0.8l0.2-1.8c0.3,0,0.5-0.1,0.7-0.2c0.2-0.1,0.4-0.2,0.6-0.5c0.5-0.5,1-1.6,1.2-3.4
			c0.2-1.4,0.6-2.3,1.3-3c0.7-0.6,1.4-0.9,2.1-0.9c0.8,0,1.4,0.2,2,0.7c0.6,0.4,0.9,1.2,0.9,2.1c0,1.3-0.5,2.4-1.4,3.4
			c-0.9,1-2.3,1.8-3.9,2.6c0.6,0.3,1,0.7,1.3,1.4c0.3,0.6,0.4,1.3,0.5,2c0,0.7,0.1,1.4,0.1,2.1c0.1,1.6,0.5,2.3,1.4,2.3
			C51.4,27.9,52.3,26.9,53,24.6z M50.7,14.3c-0.1-0.1-0.3-0.2-0.4-0.2c-0.1,0-0.2,0-0.3,0s-0.1,0.1-0.2,0.2
			c-0.1,0.1-0.1,0.1-0.1,0.2s-0.1,0.2-0.1,0.3c0,0.1-0.1,0.3-0.1,0.4s-0.1,0.3-0.1,0.4c0,0.2-0.1,0.5-0.2,0.8
			c-0.1,0.3-0.2,0.7-0.3,1c1.4-0.9,2-1.7,2-2.6C50.9,14.6,50.8,14.4,50.7,14.3z"/>
		<path fill="#FFFFFF" d="M63.9,29.9c-1.5,0-2.5-0.5-3-1.6c-0.8,1-1.9,1.6-3.2,1.6s-2.4-0.4-3.3-1.3c-0.9-0.9-1.4-2.1-1.4-3.6
			c0-2.1,0.6-3.8,1.9-5.1c1.2-1.3,2.8-1.9,4.7-1.9h0.1c0.8,0,1.6,0.1,2.2,0.4c0.4-0.3,1-0.4,1.6-0.4s1.1,0.1,1.3,0.2
			c-0.1,1.2-0.3,2.4-0.5,3.5c-0.2,1.2-0.3,2-0.3,2.5c-0.1,1.1-0.2,1.9-0.2,2.4c0,0.6,0.3,1,0.8,1c0.4,0,0.8-0.3,1.3-0.8
			s0.8-1.4,1.2-2.6c0.5,0.4,0.8,0.9,1,1.4c-0.5,1.5-1.1,2.6-1.9,3.2C65.4,29.6,64.7,29.9,63.9,29.9z M60,20.1c-1,0-1.9,0.4-2.5,1.2
			s-1,2-1.1,3.5c0,0.1,0,0.3,0,0.4c0,0.8,0.2,1.4,0.6,1.9c0.4,0.5,0.9,0.7,1.5,0.7c1,0,1.8-0.7,2.3-2.2l0.6-5.2
			C60.9,20.2,60.4,20.1,60,20.1z"/>
		<path fill="#FFFFFF" d="M77.2,22.4c1.3,0.9,1.9,2,1.9,3.3c0,1.3-0.5,2.3-1.5,3.1c-1,0.8-2.3,1.2-3.8,1.2c-1,0-1.8-0.2-2.5-0.7
			c-0.7-0.5-1-1.1-1-1.8c0-0.7,0.2-1.3,0.7-1.7c0.5-0.4,1.1-0.7,1.8-0.8c-0.3,0.5-0.5,1-0.5,1.4c0,0.4,0.2,0.8,0.5,1.1
			c0.3,0.3,0.7,0.4,1.2,0.4s0.9-0.2,1.2-0.5c0.3-0.3,0.5-0.7,0.5-1.2c0-0.7-0.3-1.4-1-2c-0.4-0.3-0.9-0.7-1.4-1s-0.7-0.5-0.8-0.5
			c-0.1,0-0.1-0.1-0.2-0.1C72,22.9,71.6,23.4,71,24c-0.5,0.6-1,1.1-1.3,1.4c-0.9,1-1.4,1.8-1.5,2.5c0,0.1,0,0.4,0,0.7
			c0,0.4,0.1,0.7,0.3,1.1c0.2,0.4,0.5,0.7,0.8,0.9c0.3,0.2,0.6,0.4,0.9,0.5c0.3,0.1,0.6,0.2,0.8,0.3c0.2,0,0.3,0.1,0.3,0.1
			c0,0.1-0.2,0.2-0.5,0.4c-0.7,0.2-1.4,0.4-2.1,0.4s-1.4-0.3-2.1-0.8c-0.9-0.7-1.4-1.7-1.4-2.8c0-0.7,0.2-1.4,0.6-2.2
			c0.7-1.3,2.2-3,4.7-5.2c-0.6-0.6-0.9-1.2-0.9-1.9c0-0.7,0.3-1.3,0.8-1.7c0.5-0.5,1.1-0.7,1.8-0.7c0.6,0,1.2,0.2,1.6,0.7
			c0.3,0.3,0.5,0.8,0.5,1.3c0,0.5-0.2,1.1-0.5,1.7C75.4,21.4,76.5,22,77.2,22.4z M71.9,19.7c0.4-0.4,0.6-0.7,0.6-0.9
			c0-0.4-0.2-0.6-0.5-0.7c-0.4,0-0.6,0.2-0.6,0.7C71.3,19.1,71.5,19.4,71.9,19.7z"/>
		<path fill="#FFFFFF" d="M81.7,18.2c1.1,0,1.7,0.3,1.8,0.8c0.8-0.5,1.7-0.8,2.9-0.8c1.2,0,2.2,0.5,3,1.4c0.8,1,1.3,2.1,1.3,3.3
			c0,0.2,0,0.4,0,0.6c-0.2,2.1-0.9,3.7-2.1,4.8s-2.9,1.7-4.9,1.7c-0.5,0-0.9-0.1-1.5-0.2l-0.8,6.6h-3.2c1-8.8,1.7-14.9,2.1-17.9
			C80.7,18.2,81.2,18.2,81.7,18.2z M87.3,23.1c0-0.7-0.2-1.3-0.5-1.9c-0.3-0.5-0.8-0.8-1.5-0.8c-0.9,0-1.6,0.6-2.1,1.8
			c-0.3,2.4-0.5,3.8-0.6,4.2c0,0.5,0.1,0.9,0.5,1.1c0.3,0.2,0.7,0.4,1.2,0.4c0.8,0,1.5-0.4,2-1.1C87,25.8,87.3,24.6,87.3,23.1z"/>
		<path fill="#FFFFFF" d="M98,23.2c0.5-0.6,0.7-1.2,0.7-1.7c0-0.6-0.2-0.9-0.4-1.1c-0.3-0.2-0.6-0.3-1-0.3c-0.8,0-1.4,0.4-2,1.3
			c-0.6,0.8-0.9,1.9-0.9,3c0,1.2,0.3,2,0.8,2.6c0.6,0.6,1.2,0.9,2.1,0.9c1.2,0,2.4-0.4,3.5-1.3c1.1-0.8,2-1.9,2.7-3.3
			c0.4,0.3,0.7,0.8,1,1.3c-0.5,1.2-1.5,2.4-2.8,3.6c-0.7,0.6-1.5,1-2.4,1.4c-0.9,0.4-1.9,0.5-2.9,0.5c-1.6,0-2.9-0.5-3.8-1.5
			c-1-1.1-1.5-2.4-1.5-4.1s0.6-3.1,1.9-4.4c1.3-1.2,2.8-1.9,4.5-1.9c1.2,0,2.3,0.3,3,0.8c0.8,0.5,1.2,1.3,1.2,2.2
			c0,1.2-0.5,2.3-1.5,3c-1,0.8-2.4,1.3-4.1,1.6l-0.3-1.4C96.8,24.2,97.5,23.8,98,23.2z"/>
		<path fill="#FFFFFF" d="M109.7,21.4c0-0.7-0.3-1.1-1-1.1s-1.2,0.4-1.6,1.3c1.7,1.4,2.6,2.9,2.6,4.6c0,1.2-0.3,2.2-1,2.8
			c-0.7,0.6-1.6,1-2.6,1c-1.1,0-1.8-0.3-2.3-1c-0.5-0.7-0.7-1.5-0.7-2.5c0-0.3,0-0.5,0-0.7l0.8-7.3c0.6-0.2,1.2-0.3,1.8-0.3
			c1,0,1.5,0.4,1.5,1.1l0,0c0.6-0.8,1.5-1.1,2.5-1.1c0.7,0,1.3,0.2,1.7,0.5c0.4,0.3,0.6,0.8,0.6,1.3c0,0.5-0.2,1-0.6,1.3
			s-1,0.5-1.6,0.5h-0.1C109.7,21.7,109.7,21.5,109.7,21.4z M106.8,23.3c-0.3,2.3-0.4,3.5-0.4,3.5c0,0.7,0.3,1,0.8,1
			c0.7,0,1.1-0.6,1.1-1.7C108.2,25.1,107.7,24.2,106.8,23.3z"/>
	</g>
	<g>
		<path fill="#00C7FC" d="M75.5,15h-0.8v-4.3h-1.5V9.9H77v0.7h-1.5V15z"/>
		<path fill="#00C7FC" d="M81,15h-2.8v-5H81v0.7h-2v1.4h1.9v0.7H79v1.6h2V15z"/>
		<path fill="#00C7FC" d="M84.8,15l-1.5-4.2l0,0c0,0.6,0.1,1.2,0.1,1.8V15h-0.7v-5h1.2l1.4,4l0,0l1.4-4h1.2v5H87v-2.5
			c0-0.2,0-0.6,0-1s0-0.6,0-0.7l0,0L85.5,15H84.8z"/>
		<path fill="#00C7FC" d="M92.7,11.4c0,0.5-0.2,0.9-0.5,1.2c-0.3,0.3-0.8,0.4-1.5,0.4h-0.5v1.9h-0.8v-5h1.4c0.6,0,1.1,0.1,1.4,0.4
			C92.5,10.6,92.7,10.9,92.7,11.4z M90.2,12.4h0.4c0.4,0,0.7-0.1,0.9-0.2c0.2-0.1,0.3-0.4,0.3-0.7s-0.1-0.5-0.3-0.6
			c-0.2-0.1-0.5-0.2-0.8-0.2h-0.6L90.2,12.4L90.2,12.4z"/>
		<path fill="#00C7FC" d="M94,15v-5h0.8v4.3H97V15H94z"/>
		<path fill="#00C7FC" d="M101.5,15l-0.5-1.4h-1.9L98.6,15h-0.9l1.9-5h0.9l1.9,5H101.5z M100.8,12.8l-0.5-1.4c0-0.1-0.1-0.2-0.1-0.4
			c-0.1-0.2-0.1-0.3-0.1-0.4c-0.1,0.3-0.2,0.6-0.3,0.9l-0.5,1.3C99.3,12.8,100.8,12.8,100.8,12.8z"/>
		<path fill="#00C7FC" d="M105.2,15h-0.8v-4.3h-1.5V9.9h3.8v0.7h-1.5V15z"/>
		<path fill="#00C7FC" d="M110.6,15h-2.8v-5h2.8v0.7h-2v1.4h1.9v0.7h-1.9v1.6h2V15z"/>
	</g>
</g>
</svg>
