<?xml version="1.0" encoding="utf-8"?>
<!-- Generator: Adobe Illustrator 22.1.0, SVG Export Plug-In . SVG Version: 6.00 Build 0)  -->
<svg version="1.2" baseProfile="tiny" id="Layer_6" xmlns="http://www.w3.org/2000/svg" xmlns:xlink="http://www.w3.org/1999/xlink"
	 x="0px" y="0px" viewBox="0 0 112 37" xml:space="preserve">
<g>
	<path fill="#00C7FC" d="M26.5,12.8C26.3,5.7,20.4,0,13.3,0C6.1,0,0.3,5.7,0,12.8h0v17.4c0,1.9,1,2.2,2.1,0.8c0,0,0,0,0,0l0.2-0.2
		c1.2-1.5,3.1-1.5,4.3,0l0.1,0.1l0.1,0.1c1.2,1.5,3.1,1.5,4.3,0l0.1-0.1l0.1-0.1c1.2-1.5,3.1-1.5,4.3,0l0.1,0.2v0
		c1.2,1.5,3.1,1.5,4.3,0l0,0l0.1-0.2c1.2-1.5,3.1-1.5,4.3,0l0.1,0.1l0.1,0.1c1.2,1.5,2.1,1.1,2.1-0.7L26.5,12.8L26.5,12.8z M8.6,14
		c-1.3,0-2.4-1.1-2.4-2.4c0-1.3,1.1-2.4,2.4-2.4c1.3,0,2.4,1.1,2.4,2.4C11,12.9,9.9,14,8.6,14z M17.9,14c-1.3,0-2.4-1.1-2.4-2.4
		c0-1.3,1.1-2.4,2.4-2.4c1.3,0,2.4,1.1,2.4,2.4C20.2,12.9,19.2,14,17.9,14z"/>
	<g>
		<path fill="#FFFFFF" d="M37.9,30.2c-0.9,0-1.5-0.3-2.1-0.8c-0.5-0.5-0.8-1.2-0.8-2c0-1.9,1.4-3.5,4.3-4.9c0.1-1,0.3-2.3,0.5-4.1
			c0.4-3.6,0.6-5.7,0.7-6.3c0.7-0.4,1.4-0.6,2.1-0.6c0.7,0,1.3,0,1.6,0.1l-1.8,13.7C42,28.6,40.5,30.2,37.9,30.2z M36.9,27.1
			c0,0.6,0.3,0.9,0.8,0.9c0.2,0,0.5-0.1,0.7-0.4c0.3-0.3,0.4-0.8,0.5-1.4l0.2-1.5C37.6,25.5,36.9,26.3,36.9,27.1z M53,24.8l0.8,1.2
			c-0.2,0.9-0.6,1.6-1,2.2c-0.4,0.6-0.9,1-1.3,1.3c-0.8,0.5-1.6,0.7-2.4,0.7c-1.3,0-2.3-0.4-2.9-1.1c-0.6-0.8-0.9-1.8-1-3
			c0-2-0.2-3.3-0.4-3.8c-0.2-0.5-0.6-0.8-1.3-0.8l0.2-1.8c0.3,0,0.5-0.1,0.7-0.2c0.2-0.1,0.4-0.2,0.6-0.5c0.5-0.5,1-1.6,1.2-3.4
			c0.2-1.4,0.6-2.3,1.3-3c0.7-0.6,1.4-0.9,2.1-0.9c0.8,0,1.4,0.2,2,0.7c0.6,0.4,0.9,1.2,0.9,2.1c0,1.3-0.5,2.4-1.4,3.4
			c-0.9,1-2.3,1.8-3.9,2.6c0.6,0.3,1,0.7,1.3,1.4c0.3,0.6,0.4,1.3,0.5,2c0,0.7,0.1,1.4,0.1,2.1c0.1,1.6,0.5,2.3,1.4,2.3
			C51.4,28.2,52.3,27.1,53,24.8z M50.7,14.4c-0.1-0.1-0.3-0.2-0.4-0.2c-0.1,0-0.2,0-0.3,0c-0.1,0-0.1,0.1-0.2,0.2
			c-0.1,0.1-0.1,0.1-0.1,0.2c0,0.1-0.1,0.2-0.1,0.3c0,0.1-0.1,0.3-0.1,0.4c0,0.1-0.1,0.3-0.1,0.4c0,0.2-0.1,0.5-0.2,0.8
			c-0.1,0.3-0.2,0.7-0.3,1c1.4-0.9,2-1.7,2-2.6C50.9,14.7,50.8,14.5,50.7,14.4z"/>
		<path fill="#FFFFFF" d="M63.9,30.2c-1.5,0-2.5-0.5-3-1.6c-0.8,1-1.9,1.6-3.2,1.6c-1.3,0-2.4-0.4-3.3-1.3C53.5,28,53,26.8,53,25.3
			c0-2.1,0.6-3.8,1.9-5.1c1.2-1.3,2.8-1.9,4.7-1.9c0,0,0.1,0,0.1,0c0.8,0,1.6,0.1,2.2,0.4c0.4-0.3,1-0.4,1.6-0.4
			c0.6,0,1.1,0.1,1.3,0.2c-0.1,1.2-0.3,2.4-0.5,3.5c-0.2,1.2-0.3,2-0.3,2.5c-0.1,1.1-0.2,1.9-0.2,2.4c0,0.6,0.3,1,0.8,1
			c0.4,0,0.8-0.3,1.3-0.8c0.5-0.5,0.8-1.4,1.2-2.6c0.5,0.4,0.8,0.9,1,1.4c-0.5,1.5-1.1,2.6-1.9,3.2C65.4,29.9,64.7,30.2,63.9,30.2z
			 M60,20.3c-1,0-1.9,0.4-2.5,1.2c-0.6,0.8-1,2-1.1,3.5c0,0.1,0,0.3,0,0.4c0,0.8,0.2,1.4,0.6,1.9c0.4,0.5,0.9,0.7,1.5,0.7
			c1,0,1.8-0.7,2.3-2.2l0.6-5.2C60.9,20.4,60.4,20.3,60,20.3z"/>
		<path fill="#FFFFFF" d="M77.2,22.6c1.3,0.9,1.9,2,1.9,3.3c0,1.3-0.5,2.3-1.5,3.1c-1,0.8-2.3,1.2-3.8,1.2c-1,0-1.8-0.2-2.5-0.7
			s-1-1.1-1-1.8s0.2-1.3,0.7-1.7c0.5-0.4,1.1-0.7,1.8-0.8c-0.3,0.5-0.5,1-0.5,1.4c0,0.4,0.2,0.8,0.5,1.1c0.3,0.3,0.7,0.4,1.2,0.4
			c0.5,0,0.9-0.2,1.2-0.5c0.3-0.3,0.5-0.7,0.5-1.2c0-0.7-0.3-1.4-1-2c-0.4-0.3-0.9-0.7-1.4-1c-0.5-0.3-0.7-0.5-0.8-0.5
			c-0.1,0-0.1-0.1-0.2-0.1c-0.3,0.3-0.7,0.8-1.3,1.4c-0.5,0.6-1,1.1-1.3,1.4c-0.9,1-1.4,1.8-1.5,2.5c0,0.1,0,0.4,0,0.7
			c0,0.4,0.1,0.7,0.3,1.1c0.2,0.4,0.5,0.7,0.8,0.9c0.3,0.2,0.6,0.4,0.9,0.5c0.3,0.1,0.6,0.2,0.8,0.3c0.2,0,0.3,0.1,0.3,0.1
			c0,0.1-0.2,0.2-0.5,0.4c-0.7,0.2-1.4,0.4-2.1,0.4c-0.7,0-1.4-0.3-2.1-0.8c-0.9-0.7-1.4-1.7-1.4-2.8c0-0.7,0.2-1.4,0.6-2.2
			c0.7-1.3,2.2-3,4.7-5.2c-0.6-0.6-0.9-1.2-0.9-1.9c0-0.7,0.3-1.3,0.8-1.7c0.5-0.5,1.1-0.7,1.8-0.7c0.6,0,1.2,0.2,1.6,0.7
			c0.3,0.3,0.5,0.8,0.5,1.3c0,0.5-0.2,1.1-0.5,1.7C75.4,21.6,76.5,22.2,77.2,22.6z M71.9,19.9c0.4-0.4,0.6-0.7,0.6-0.9
			c0-0.4-0.2-0.6-0.5-0.7c-0.4,0-0.6,0.2-0.6,0.7C71.3,19.3,71.5,19.6,71.9,19.9z"/>
		<path fill="#FFFFFF" d="M81.7,18.4c1.1,0,1.7,0.3,1.8,0.8c0.8-0.5,1.7-0.8,2.9-0.8c1.2,0,2.2,0.5,3,1.4c0.8,1,1.3,2.1,1.3,3.3
			c0,0.2,0,0.4,0,0.6c-0.2,2.1-0.9,3.7-2.1,4.8c-1.2,1.1-2.9,1.7-4.9,1.7c-0.5,0-0.9-0.1-1.5-0.2l-0.8,6.7h-3.2
			c1-8.9,1.7-15,2.1-18.1C80.7,18.4,81.2,18.4,81.7,18.4z M87.3,23.3c0-0.7-0.2-1.3-0.5-1.9c-0.3-0.5-0.8-0.8-1.5-0.8
			c-0.9,0-1.6,0.6-2.1,1.8c-0.3,2.4-0.5,3.8-0.6,4.2c0,0.5,0.1,0.9,0.5,1.1c0.3,0.2,0.7,0.4,1.2,0.4c0.8,0,1.5-0.4,2-1.1
			C87,26,87.3,24.8,87.3,23.3z"/>
		<path fill="#FFFFFF" d="M98,23.4c0.5-0.6,0.7-1.2,0.7-1.7c0-0.6-0.2-0.9-0.4-1.1c-0.3-0.2-0.6-0.3-1-0.3c-0.8,0-1.4,0.4-2,1.3
			c-0.6,0.8-0.9,1.9-0.9,3c0,1.2,0.3,2,0.8,2.6c0.6,0.6,1.2,0.9,2.1,0.9c1.2,0,2.4-0.4,3.5-1.3c1.1-0.8,2-1.9,2.7-3.3
			c0.4,0.3,0.7,0.8,1,1.3c-0.5,1.2-1.5,2.4-2.8,3.6c-0.7,0.6-1.5,1-2.4,1.4c-0.9,0.4-1.9,0.5-2.9,0.5c-1.6,0-2.9-0.5-3.8-1.5
			c-1-1.1-1.5-2.4-1.5-4.1c0-1.7,0.6-3.1,1.9-4.4c1.3-1.2,2.8-1.9,4.5-1.9c1.2,0,2.3,0.3,3,0.8c0.8,0.5,1.2,1.3,1.2,2.2
			c0,1.2-0.5,2.3-1.5,3c-1,0.8-2.4,1.3-4.1,1.6l-0.3-1.4C96.8,24.4,97.5,24,98,23.4z"/>
		<path fill="#FFFFFF" d="M109.7,21.6c0-0.7-0.3-1.1-1-1.1s-1.2,0.4-1.6,1.3c1.7,1.4,2.6,2.9,2.6,4.6c0,1.2-0.3,2.2-1,2.8
			c-0.7,0.6-1.6,1-2.6,1c-1.1,0-1.8-0.3-2.3-1c-0.5-0.7-0.7-1.5-0.7-2.5c0-0.3,0-0.5,0-0.7l0.8-7.4c0.6-0.2,1.2-0.3,1.8-0.3
			c1,0,1.5,0.4,1.5,1.1v0c0.6-0.8,1.5-1.1,2.5-1.1c0.7,0,1.3,0.2,1.7,0.5c0.4,0.3,0.6,0.8,0.6,1.3c0,0.5-0.2,1-0.6,1.3
			c-0.4,0.3-1,0.5-1.6,0.5c0,0-0.1,0-0.1,0C109.7,21.9,109.7,21.7,109.7,21.6z M106.8,23.5c-0.3,2.3-0.4,3.5-0.4,3.5
			c0,0.7,0.3,1,0.8,1c0.7,0,1.1-0.6,1.1-1.7C108.2,25.3,107.7,24.4,106.8,23.5z"/>
	</g>
	<g>
		<path fill="#00C7FC" d="M75.5,15.1h-0.8v-4.3h-1.5V10H77v0.7h-1.5V15.1z"/>
		<path fill="#00C7FC" d="M81,15.1h-2.8v-5H81v0.7h-2v1.4h1.9v0.7H79v1.6h2V15.1z"/>
		<path fill="#00C7FC" d="M84.8,15.1l-1.5-4.2h0c0,0.6,0.1,1.2,0.1,1.8v2.4h-0.7v-5h1.2l1.4,4h0l1.4-4h1.2v5H87v-2.5
			c0-0.2,0-0.6,0-1c0-0.4,0-0.6,0-0.7h0l-1.5,4.2H84.8z"/>
		<path fill="#00C7FC" d="M92.7,11.5c0,0.5-0.2,0.9-0.5,1.2c-0.3,0.3-0.8,0.4-1.5,0.4h-0.5v1.9h-0.8v-5h1.4c0.6,0,1.1,0.1,1.4,0.4
			C92.5,10.7,92.7,11,92.7,11.5z M90.2,12.5h0.4c0.4,0,0.7-0.1,0.9-0.2c0.2-0.1,0.3-0.4,0.3-0.7c0-0.3-0.1-0.5-0.3-0.6
			c-0.2-0.1-0.5-0.2-0.8-0.2h-0.6V12.5z"/>
		<path fill="#00C7FC" d="M94,15.1v-5h0.8v4.3H97v0.7H94z"/>
		<path fill="#00C7FC" d="M101.5,15.1l-0.5-1.4h-1.9l-0.5,1.4h-0.9l1.9-5h0.9l1.9,5H101.5z M100.8,12.9l-0.5-1.4
			c0-0.1-0.1-0.2-0.1-0.4c-0.1-0.2-0.1-0.3-0.1-0.4c-0.1,0.3-0.2,0.6-0.3,0.9l-0.5,1.3H100.8z"/>
		<path fill="#00C7FC" d="M105.2,15.1h-0.8v-4.3h-1.5V10h3.8v0.7h-1.5V15.1z"/>
		<path fill="#00C7FC" d="M110.6,15.1h-2.8v-5h2.8v0.7h-2v1.4h1.9v0.7h-1.9v1.6h2V15.1z"/>
	</g>
</g>
</svg>
